<?xml version="1.0" standalone="no"?>
<!DOCTYPE svg PUBLIC "-//W3C//DTD SVG 20010904//EN"
 "http://www.w3.org/TR/2001/REC-SVG-20010904/DTD/svg10.dtd">
<svg version="1.0" xmlns="http://www.w3.org/2000/svg"
 width="256.000000pt" height="256.000000pt" viewBox="0 0 256.000000 256.000000"
 preserveAspectRatio="xMidYMid meet">

<g transform="translate(0.000000,256.000000) scale(0.100000,-0.100000)"
fill="#000000" stroke="none">
<path d="M77 2138 c-23 -14 -45 -38 -57 -63 -19 -40 -20 -63 -20 -795 0 -733
1 -755 20 -795 13 -26 34 -49 59 -63 l39 -22 1170 2 c1165 3 1171 3 1198 24
15 11 37 33 48 48 21 27 21 35 21 806 0 771 0 779 -21 806 -11 15 -33 37 -48
48 -27 21 -33 21 -1199 23 l-1172 3 -38 -22z m414 -500 c0 -10 2 -10 6 0 3 8
32 12 94 12 l89 0 17 -35 c9 -19 20 -35 23 -35 3 0 14 16 23 35 l17 35 284 0
c161 0 296 -4 310 -10 17 -6 26 -6 26 0 0 13 157 13 162 0 2 -7 15 -7 38 0 19
5 90 10 157 10 106 0 123 -2 132 -17 10 -17 10 -17 11 0 0 15 11 17 85 17 61
0 85 -3 85 -12 0 -10 2 -10 9 0 5 9 30 12 87 10 l79 -3 3 -172 2 -173 -88 0
c-82 0 -90 2 -100 23 l-11 22 0 -22 c-1 -22 -4 -23 -105 -23 l-104 0 -11 30
c-7 21 -17 30 -31 30 -14 0 -24 -9 -31 -30 -11 -30 -12 -30 -84 -30 -41 0 -85
4 -99 10 -17 6 -26 6 -26 0 0 -16 -750 -13 -751 3 0 9 -2 9 -5 0 -4 -9 -52
-12 -170 -12 l-165 -1 -9 25 c-13 33 -47 33 -62 0 -11 -24 -15 -25 -104 -25
l-94 0 26 58 c14 31 49 110 77 175 l50 117 79 0 c55 0 78 -4 79 -12z m514
-424 l17 -26 26 25 27 26 642 0 642 0 5 -97 c13 -204 14 -188 -22 -224 l-32
-33 -390 -3 -390 -3 -2 48 -2 48 -3 -47 -4 -48 -80 0 -79 0 0 46 c0 43 -2 46
-22 40 -13 -3 -33 -6 -45 -6 -18 0 -22 -7 -25 -37 l-3 -38 -94 -3 c-89 -3 -95
-1 -121 23 l-26 25 -24 -25 c-23 -25 -26 -25 -177 -25 l-153 0 0 180 0 180
159 0 159 0 17 -26z"/>
<path d="M361 1568 c-5 -13 -25 -61 -45 -108 -20 -46 -36 -88 -36 -92 0 -4 11
-8 23 -8 16 0 28 9 35 25 11 23 17 25 72 25 55 0 61 -2 72 -25 10 -22 17 -25
69 -25 l58 0 3 93 3 92 40 -92 c36 -83 43 -93 66 -93 24 0 31 9 65 90 22 49
42 90 47 90 4 0 7 -40 7 -90 0 -83 1 -90 20 -90 19 0 20 7 20 115 l0 115 -43
0 -43 0 -33 -80 c-18 -44 -36 -80 -39 -80 -4 0 -22 36 -41 80 l-34 80 -44 0
-43 0 0 -110 c0 -60 -3 -110 -7 -110 -5 0 -28 50 -52 110 l-45 110 -43 0 c-36
0 -45 -4 -52 -22z m73 -61 c9 -23 16 -46 16 -50 0 -4 -18 -7 -41 -7 -29 0 -40
4 -36 13 2 6 10 29 18 50 7 20 16 37 20 37 3 0 14 -19 23 -43z"/>
<path d="M940 1470 l0 -120 90 0 c89 0 90 0 90 25 0 24 -2 25 -65 25 -63 0
-65 1 -65 25 0 24 2 25 65 25 58 0 65 2 65 20 0 18 -7 20 -65 20 l-65 0 0 30
0 30 65 0 c58 0 65 2 65 20 0 19 -7 20 -90 20 l-90 0 0 -120z"/>
<path d="M1170 1475 l0 -115 25 0 c23 0 25 4 25 40 l0 40 54 0 c57 0 66 -7 66
-56 0 -19 5 -24 25 -24 22 0 25 4 25 35 0 21 -8 43 -19 54 -19 19 -19 20 0 37
24 22 25 66 1 87 -15 13 -39 17 -110 17 l-92 0 0 -115z m154 62 c37 -27 -7
-63 -70 -55 -25 2 -29 8 -32 36 -3 32 -3 32 40 32 25 0 52 -6 62 -13z"/>
<path d="M1440 1475 l0 -115 25 0 25 0 0 115 0 115 -25 0 -25 0 0 -115z"/>
<path d="M1574 1580 c-19 -8 -34 -33 -49 -87 -8 -30 11 -96 34 -117 12 -11 43
-20 79 -23 58 -5 59 -5 71 26 13 30 15 31 76 31 59 0 63 -2 69 -25 5 -20 13
-25 36 -25 l29 0 -47 115 -47 115 -41 0 -42 0 -39 -92 c-36 -87 -41 -93 -70
-96 -23 -2 -35 3 -47 20 -39 55 0 128 69 128 28 0 35 4 35 20 0 17 -6 20 -47
19 -27 0 -57 -4 -69 -9z m226 -55 c5 -14 13 -37 16 -50 6 -24 4 -25 -35 -25
-23 0 -41 2 -41 4 0 11 40 96 45 96 3 0 10 -11 15 -25z"/>
<path d="M1930 1475 l0 -115 25 0 c25 0 25 1 25 86 0 48 4 83 9 80 5 -3 30
-42 56 -86 46 -78 48 -80 86 -80 l39 0 0 115 0 115 -30 0 -29 0 -3 -82 -3 -83
-48 83 c-48 80 -50 82 -88 82 l-39 0 0 -115z"/>
<path d="M1410 1060 l0 -120 25 0 c23 0 25 4 25 45 l0 45 48 0 c57 0 72 -12
72 -57 0 -30 3 -33 31 -33 31 0 31 0 24 43 -4 23 -14 48 -23 54 -14 12 -14 14
1 31 9 10 17 33 17 50 0 48 -29 62 -132 62 l-88 0 0 -120z m165 40 c0 -23 -4
-25 -57 -28 -55 -3 -58 -2 -58 21 0 34 8 38 65 35 46 -3 50 -5 50 -28z"/>
<path d="M1680 1060 l0 -120 90 0 c83 0 90 1 90 20 0 18 -7 20 -65 20 l-65 0
0 30 0 30 65 0 c58 0 65 2 65 20 0 18 -7 20 -65 20 -63 0 -65 1 -65 25 0 24 2
25 65 25 63 0 65 1 65 25 0 25 -1 25 -90 25 l-90 0 0 -120z"/>
<path d="M1920 1160 c-20 -20 -26 -65 -12 -86 13 -19 50 -34 85 -34 42 0 66
-23 47 -45 -8 -10 -31 -15 -71 -15 -52 0 -59 -2 -59 -20 0 -18 7 -20 75 -20
86 0 115 18 115 70 0 44 -31 70 -82 70 -51 0 -73 12 -65 34 5 12 21 16 72 16
63 0 65 1 65 25 0 24 -2 25 -75 25 -62 0 -79 -4 -95 -20z"/>
<path d="M2152 1164 c-16 -11 -22 -25 -22 -53 0 -48 16 -61 82 -70 41 -5 54
-10 56 -25 6 -27 -15 -36 -80 -36 -51 0 -58 -2 -58 -20 0 -18 7 -20 74 -20 86
0 126 22 126 69 0 40 -33 65 -93 71 -44 4 -52 8 -52 25 0 18 8 20 68 23 64 3
67 4 67 27 0 24 -2 25 -73 25 -49 0 -80 -5 -95 -16z"/>
<path d="M730 1055 l0 -115 111 0 111 0 37 42 37 41 34 -41 c32 -41 35 -42 92
-42 l58 0 0 45 0 45 60 0 c51 0 65 4 85 25 30 29 32 68 5 95 -18 18 -33 20
-137 20 l-117 0 -38 -37 -38 -37 -38 37 -38 37 -112 0 -112 0 0 -115z m430 0
c0 -52 -4 -95 -8 -95 -8 0 -34 27 -76 77 -17 21 -17 22 24 67 24 25 46 46 51
46 5 0 9 -43 9 -95z m-201 41 l34 -35 -32 -40 -33 -41 -74 0 -74 0 0 30 0 30
60 0 c53 0 60 2 60 20 0 18 -7 20 -60 20 -57 0 -60 1 -60 25 0 24 2 25 73 25
70 0 74 -1 106 -34z m359 5 c5 -30 -12 -41 -65 -41 -43 0 -43 0 -43 36 l0 35
53 -3 c46 -3 52 -6 55 -27z"/>
</g>
</svg>
