<?xml version="1.0" standalone="no"?>
<!DOCTYPE svg PUBLIC "-//W3C//DTD SVG 20010904//EN"
 "http://www.w3.org/TR/2001/REC-SVG-20010904/DTD/svg10.dtd">
<svg version="1.0" xmlns="http://www.w3.org/2000/svg"
 width="3000.000000pt" height="2000.000000pt" viewBox="0 0 3000.000000 2000.000000"
 preserveAspectRatio="xMidYMid meet">

<g transform="translate(0.000000,2000.000000) scale(0.100000,-0.100000)"
fill="#000000" stroke="none">
<path d="M7980 14729 c-337 -44 -722 -244 -966 -501 -219 -232 -365 -495 -438
-789 -31 -124 -49 -305 -40 -394 l7 -65 99 0 c489 0 1003 364 1264 895 115
235 168 457 169 705 0 176 8 163 -95 149z"/>
<path d="M11690 10685 l0 -3515 545 0 545 0 0 1205 0 1205 848 0 c899 0 983 4
1212 51 896 183 1539 805 1735 1679 47 206 59 329 59 585 0 335 -35 559 -130
836 -253 739 -843 1253 -1621 1414 -245 51 -177 49 -1735 52 l-1458 4 0 -3516z
m2588 2584 c383 -41 667 -163 883 -378 266 -265 392 -665 359 -1137 -26 -363
-133 -631 -337 -845 -229 -241 -536 -373 -953 -409 -63 -5 -415 -10 -782 -10
l-668 0 0 1395 0 1395 700 0 c425 0 739 -4 798 -11z"/>
<path d="M7844 12889 c-197 -18 -393 -71 -727 -198 -366 -140 -384 -145 -512
-145 -124 1 -165 11 -405 104 -287 111 -349 132 -476 165 -252 65 -458 68
-723 9 -470 -105 -878 -391 -1154 -809 -123 -186 -241 -462 -301 -700 -244
-970 60 -2290 757 -3295 327 -471 549 -698 802 -820 129 -62 212 -82 342 -82
179 1 294 31 598 155 294 120 432 150 675 150 233 -1 365 -32 662 -157 269
-112 375 -139 563 -139 413 0 715 233 1167 898 170 249 281 446 386 685 50
114 131 325 156 407 6 20 -1 26 -64 58 -408 205 -720 556 -855 958 -142 424
-118 880 65 1262 125 260 333 504 583 683 42 31 77 59 77 63 0 22 -133 179
-228 271 -287 275 -671 439 -1117 477 -132 12 -140 12 -271 0z"/>
<path d="M18974 12330 c-214 -18 -473 -74 -665 -143 -652 -237 -1086 -748
-1135 -1335 l-7 -82 491 0 491 0 11 43 c87 343 381 585 793 652 118 19 354 19
482 0 145 -22 237 -49 350 -105 210 -103 332 -247 402 -477 26 -85 27 -98 31
-380 3 -271 3 -293 -13 -293 -72 0 -1403 -83 -1525 -95 -390 -39 -702 -118
-970 -246 -319 -153 -535 -355 -665 -623 -100 -205 -142 -418 -132 -671 19
-461 213 -843 562 -1105 404 -303 1002 -421 1560 -309 207 42 469 146 640 254
212 135 425 352 535 548 17 31 36 57 41 57 5 0 10 -183 11 -422 l3 -423 503
-3 502 -2 -3 1872 -3 1873 -22 98 c-70 304 -190 532 -391 740 -233 241 -533
406 -911 502 -278 70 -659 100 -966 75z m1246 -3104 c0 -273 -10 -364 -53
-491 -112 -326 -381 -580 -740 -700 -444 -147 -955 -90 -1225 138 -153 128
-226 287 -225 492 0 60 7 126 17 165 73 288 344 478 776 544 132 20 153 22
795 61 507 31 593 37 643 43 9 2 12 -55 12 -252z"/>
<path d="M21703 12258 c129 -350 1837 -5093 1837 -5105 0 -43 -146 -462 -195
-558 -66 -130 -105 -183 -197 -271 -131 -124 -289 -186 -517 -204 -70 -5 -136
-7 -146 -5 -11 2 -77 6 -147 9 l-128 6 0 -419 c0 -374 2 -420 16 -425 9 -3
106 -11 216 -17 307 -18 600 6 838 66 396 100 692 322 942 705 91 139 228 415
311 625 37 94 503 1392 1035 2885 l968 2715 -550 3 c-302 1 -553 -1 -556 -5
-4 -5 -294 -938 -646 -2075 -378 -1224 -644 -2068 -651 -2068 -6 0 -14 8 -17
18 -8 26 -1255 4062 -1267 4100 l-11 32 -570 0 c-452 0 -569 -3 -565 -12z"/>
</g>
</svg>
