<?xml version="1.0" standalone="no"?>
<!DOCTYPE svg PUBLIC "-//W3C//DTD SVG 20010904//EN"
 "http://www.w3.org/TR/2001/REC-SVG-20010904/DTD/svg10.dtd">
<svg version="1.0" xmlns="http://www.w3.org/2000/svg"
 width="1200.000000pt" height="572.000000pt" viewBox="0 0 1200.000000 572.000000"
 preserveAspectRatio="xMidYMid meet">

<g transform="translate(0.000000,572.000000) scale(0.100000,-0.100000)"
fill="#000000" stroke="none">
<path d="M1820 5080 c-294 -29 -605 -130 -845 -275 -297 -179 -539 -432 -710
-738 -32 -58 -35 -71 -24 -82 35 -32 628 -485 636 -485 4 0 17 24 27 53 122
347 426 625 791 724 92 25 115 27 285 27 169 0 194 -3 285 -27 121 -33 295
-117 389 -189 38 -29 75 -57 83 -63 10 -7 80 58 293 270 154 154 280 282 279
285 -1 11 -128 111 -219 173 -238 162 -498 267 -775 313 -114 18 -371 26 -495
14z"/>
<path d="M5220 3096 l0 -1726 225 0 225 0 0 700 0 700 223 -5 c122 -3 290 -7
372 -10 267 -8 423 20 610 110 465 225 684 697 555 1200 -28 108 -107 266
-174 347 -152 183 -388 326 -631 381 -85 19 -128 21 -747 24 l-658 4 0 -1725z
m1460 1253 c113 -56 250 -190 299 -293 103 -217 70 -463 -88 -639 -105 -118
-177 -164 -309 -198 -68 -17 -113 -19 -494 -19 l-418 0 0 600 0 600 393 2
c482 4 506 2 617 -53z"/>
<path d="M8390 3793 c-224 -16 -423 -85 -598 -206 -74 -51 -256 -231 -250
-248 2 -6 87 -61 188 -124 l185 -114 29 37 c154 195 337 280 586 269 135 -6
225 -33 330 -102 186 -121 260 -252 260 -462 l0 -92 -82 39 c-173 83 -431 121
-689 101 -351 -27 -562 -122 -725 -326 -57 -71 -108 -178 -130 -272 -25 -103
-23 -278 4 -376 110 -393 477 -633 937 -614 156 7 241 28 368 94 96 49 225
162 293 254 19 27 40 49 45 49 5 0 9 -72 9 -165 l0 -165 210 0 210 0 0 738 c0
737 -5 863 -37 990 -116 467 -562 738 -1143 695z m481 -1286 c93 -24 194 -68
253 -110 27 -19 28 -22 23 -86 -26 -355 -450 -685 -796 -621 -151 27 -297 112
-360 209 -82 127 -77 291 11 406 71 92 234 188 373 219 110 25 370 16 496 -17z"/>
<path d="M9653 3698 c3 -7 222 -503 487 -1101 l482 -1088 -15 -37 c-9 -20
-133 -287 -276 -592 l-261 -555 217 -3 c119 -1 220 1 224 5 4 5 338 766 742
1693 l735 1685 -221 3 c-121 1 -224 -1 -228 -5 -4 -5 -162 -387 -350 -851
-189 -463 -347 -841 -353 -839 -5 2 -168 383 -361 848 l-351 844 -238 3 c-189
2 -237 0 -233 -10z"/>
<path d="M1980 3090 l0 -380 535 0 c305 0 535 -4 535 -9 0 -34 -59 -200 -95
-268 -68 -128 -144 -219 -254 -304 l-33 -26 143 -112 c295 -228 483 -371 489
-371 3 0 26 21 51 48 326 338 503 776 525 1302 6 129 -5 351 -23 463 l-6 37
-933 0 -934 0 0 -380z"/>
</g>
</svg>
