<?xml version="1.0" standalone="no"?>
<!DOCTYPE svg PUBLIC "-//W3C//DTD SVG 20010904//EN"
 "http://www.w3.org/TR/2001/REC-SVG-20010904/DTD/svg10.dtd">
<svg version="1.0" xmlns="http://www.w3.org/2000/svg"
 width="1200.000000pt" height="1118.000000pt" viewBox="0 0 1200.000000 1118.000000"
 preserveAspectRatio="xMidYMid meet">

<g transform="translate(0.000000,1118.000000) scale(0.100000,-0.100000)"
fill="#000000" stroke="none">
<path d="M4315 11161 c-50 -22 -91 -69 -105 -119 -17 -60 -800 -5043 -800
-5092 0 -54 27 -102 72 -130 32 -19 52 -20 646 -20 489 0 612 -3 612 -13 0 -7
-40 -269 -90 -582 -49 -314 -90 -586 -90 -606 0 -41 30 -91 73 -123 28 -21 36
-21 585 -21 l557 0 48 28 c30 18 54 42 67 66 14 29 56 269 155 903 75 474 141
876 147 892 17 42 55 84 97 105 33 18 72 19 456 24 449 4 509 10 710 62 766
199 1332 868 1407 1663 26 280 -41 587 -185 844 -119 213 -342 436 -553 554
-48 27 -64 41 -64 57 0 54 -22 249 -36 316 -104 501 -493 932 -1005 1109 -116
41 -291 79 -423 91 -70 7 -495 11 -1175 11 -1013 0 -1068 -1 -1106 -19z"/>
<path d="M426 3211 c-14 -15 -59 -282 -222 -1313 -112 -711 -204 -1299 -204
-1305 0 -7 9 -22 20 -33 19 -19 33 -20 284 -20 237 0 266 2 285 17 18 16 28
66 81 403 34 212 63 393 66 403 13 42 35 45 354 50 292 3 309 5 405 30 449
120 768 524 767 972 -1 381 -251 684 -653 792 -56 14 -136 17 -614 20 -538 4
-551 4 -569 -16z m1036 -575 c66 -25 131 -85 158 -148 32 -74 26 -208 -13
-289 -51 -106 -161 -184 -292 -208 -32 -6 -155 -11 -272 -11 l-213 0 5 23 c2
12 25 155 50 317 25 162 48 305 51 318 l5 24 237 -4 c195 -4 245 -7 284 -22z"/>
<path d="M6973 3208 c-18 -20 -45 -181 -222 -1303 -111 -704 -201 -1292 -201
-1307 0 -54 19 -58 301 -58 230 0 259 2 278 18 20 15 29 61 86 417 55 347 66
402 84 416 18 15 60 17 328 21 291 5 313 6 405 31 188 50 339 136 474 271 135
135 222 287 271 474 34 130 36 309 5 423 -78 287 -303 503 -610 587 l-97 26
-540 4 -540 3 -22 -23z m1004 -563 c173 -51 251 -209 194 -392 -37 -119 -115
-200 -239 -246 -51 -19 -82 -22 -309 -25 -239 -3 -251 -3 -248 15 3 10 25 151
50 313 25 162 48 307 51 323 l6 27 222 0 c169 0 235 -4 273 -15z"/>
<path d="M11422 3223 c-7 -2 -17 -13 -22 -23 -9 -18 -411 -2540 -412 -2592 -1
-15 7 -37 17 -48 17 -19 31 -20 282 -20 247 0 264 1 282 19 11 11 23 35 26 53
3 18 95 602 205 1298 196 1245 199 1265 181 1290 l-18 25 -264 2 c-145 1 -270
-1 -277 -4z"/>
<path d="M3126 2479 c-153 -16 -351 -88 -483 -176 -32 -21 -89 -67 -127 -103
-410 -385 -476 -1071 -137 -1432 176 -188 400 -277 665 -265 166 7 287 45 443
136 l53 31 -6 -44 c-5 -36 -3 -47 15 -65 21 -21 27 -21 278 -19 l256 3 18 25
c13 19 51 238 153 890 75 476 136 879 136 897 0 62 -4 63 -289 63 -293 0 -286
2 -297 -84 -4 -25 -10 -48 -13 -50 -3 -2 -32 16 -65 40 -158 119 -381 176
-600 153z m255 -565 c112 -33 199 -109 253 -223 28 -60 31 -75 31 -161 -1
-152 -44 -254 -157 -368 -141 -143 -389 -183 -566 -93 -118 61 -202 192 -210
330 -13 228 128 433 348 508 81 28 219 31 301 7z"/>
<path d="M9590 2466 c-409 -86 -707 -358 -833 -761 -54 -173 -62 -435 -18
-599 61 -228 208 -410 416 -511 280 -136 588 -123 857 36 36 21 68 39 70 39 2
0 1 -22 0 -49 -6 -80 -3 -81 290 -81 235 0 249 1 268 20 11 11 20 24 20 29 0
5 63 409 140 897 130 821 139 889 125 911 l-15 23 -258 0 c-141 0 -262 -4
-268 -8 -18 -12 -31 -44 -38 -94 l-7 -48 -49 39 c-75 59 -145 96 -250 132 -87
30 -107 33 -240 35 -95 2 -168 -1 -210 -10z m355 -557 c169 -63 267 -204 266
-384 -1 -283 -226 -504 -513 -505 -343 0 -532 331 -366 642 77 146 207 238
376 268 65 12 175 2 237 -21z"/>
<path d="M4572 2408 c-7 -7 -12 -20 -12 -30 0 -9 112 -366 250 -792 l250 -775
-230 -372 c-127 -205 -230 -378 -230 -386 0 -7 9 -22 20 -33 19 -19 33 -20
305 -20 l285 0 29 28 c16 15 343 546 727 1181 621 1030 696 1158 688 1180 l-9
26 -308 3 -307 2 -27 -38 c-16 -22 -145 -237 -288 -480 -143 -242 -262 -438
-264 -436 -3 3 -67 210 -143 461 -76 251 -146 465 -155 475 -15 17 -39 18
-293 18 -201 0 -279 -3 -288 -12z"/>
</g>
</svg>
