<?xml version="1.0" standalone="no"?>
<!DOCTYPE svg PUBLIC "-//W3C//DTD SVG 20010904//EN"
 "http://www.w3.org/TR/2001/REC-SVG-20010904/DTD/svg10.dtd">
<svg version="1.0" xmlns="http://www.w3.org/2000/svg"
 width="800.000000pt" height="450.000000pt" viewBox="0 0 800.000000 450.000000"
 preserveAspectRatio="xMidYMid meet">

<g transform="translate(0.000000,450.000000) scale(0.100000,-0.100000)"
fill="#000000" stroke="none">
<path d="M1350 4210 c0 -9 -49 -25 -98 -33 -12 -2 -28 -9 -34 -15 -7 -7 -18
-12 -25 -12 -7 0 -13 -4 -13 -9 0 -5 -13 -14 -29 -21 -31 -12 -67 -49 -90 -90
-44 -81 -61 -121 -67 -161 -4 -24 -11 -49 -15 -55 -5 -6 -8 -689 -6 -1570 3
-1726 -1 -1630 67 -1749 45 -78 97 -127 173 -162 20 -10 37 -21 37 -26 0 -4 5
-5 10 -2 6 4 16 2 23 -3 7 -5 19 -11 27 -12 31 -6 5410 -15 5410 -9 0 4 21 12
48 18 125 32 224 114 283 236 l34 70 0 1640 0 1640 -32 65 c-19 39 -56 89 -92
125 -77 77 -84 82 -99 77 -6 -2 -12 1 -12 6 0 8 -13 15 -50 26 -3 1 -10 5 -17
9 -6 4 -18 5 -26 1 -8 -3 -21 2 -30 10 -14 14 -283 16 -2696 16 -1709 0 -2681
-3 -2681 -10z m1095 -1019 c150 -31 268 -90 371 -184 237 -217 324 -559 219
-866 -24 -72 -31 -86 -84 -171 -87 -139 -261 -259 -436 -301 -75 -17 -110 -20
-210 -16 -186 8 -307 57 -431 174 -198 187 -241 473 -107 705 58 101 149 193
179 181 21 -8 144 -162 144 -180 0 -8 -19 -37 -43 -63 -113 -126 -117 -311 -8
-432 85 -95 218 -138 363 -118 173 24 304 121 368 275 60 146 54 319 -18 465
-89 182 -260 280 -488 280 -157 0 -294 -51 -423 -156 -30 -25 -61 -43 -70 -42
-19 4 -129 145 -137 176 -17 64 213 213 401 261 102 25 121 28 230 29 55 1
125 -6 180 -17z m1650 -76 c188 -49 318 -201 347 -403 22 -163 -22 -311 -127
-421 -110 -115 -223 -151 -475 -151 l-148 0 -7 -47 c-4 -26 -5 -116 -4 -200 2
-98 0 -156 -7 -163 -7 -7 -51 -10 -115 -8 l-104 3 -3 690 c-1 380 0 696 3 703
7 19 561 17 640 -3z m1038 -450 c96 -29 170 -106 204 -209 13 -42 17 -111 20
-373 3 -224 1 -329 -7 -343 -10 -19 -19 -20 -113 -18 l-102 3 -3 30 c-5 47
-16 49 -65 12 -68 -52 -107 -62 -237 -62 -138 1 -195 21 -261 92 -57 62 -73
104 -72 193 0 93 18 137 84 201 81 79 169 104 403 115 l146 7 0 33 c0 100 -65
154 -182 153 -89 0 -146 -25 -181 -77 l-29 -43 -95 3 c-118 4 -123 9 -93 90
55 146 215 224 440 213 52 -3 117 -11 143 -20z m582 -22 c4 -10 43 -115 87
-233 80 -214 109 -290 145 -385 10 -27 25 -50 32 -50 9 0 38 76 83 215 38 118
89 271 112 340 l43 125 105 3 c76 2 108 -1 116 -10 8 -10 -16 -82 -89 -278
-55 -146 -124 -330 -154 -410 -132 -353 -153 -408 -175 -453 -36 -77 -112
-152 -188 -189 -58 -27 -81 -32 -168 -36 -144 -6 -145 -5 -142 116 l3 97 85 1
c103 2 155 24 200 85 50 70 49 93 -8 237 -28 70 -78 199 -112 287 -33 88 -67
174 -75 192 -8 17 -15 34 -15 38 0 4 -6 21 -14 38 -29 66 -96 246 -96 260 0
24 11 27 116 27 88 0 103 -2 109 -17z"/>
<path d="M3689 2898 c-6 -11 -9 -117 -7 -276 l3 -257 154 -3 c190 -3 228 7
295 77 124 134 89 368 -67 448 -49 25 -61 26 -210 28 -145 2 -159 1 -168 -17z"/>
<path d="M4924 2130 c-105 -9 -158 -30 -185 -74 -58 -94 10 -170 151 -170 152
1 240 82 240 222 l0 32 -57 -1 c-32 -1 -99 -5 -149 -9z"/>
</g>
</svg>
